<svg width="22" height="25" viewBox="0 0 22 25" fill="none" xmlns="http://www.w3.org/2000/svg">
<path d="M0.484375 0H20.6406L21.125 7.03125H20C19.7292 5.01042 19.125 3.59375 18.1875 2.78125C17.2709 1.98958 15.8802 1.59375 14.0156 1.59375H11.75V20.6406C11.75 21.599 11.9532 22.2396 12.3594 22.5625C12.6823 22.8229 13.5365 23.0208 14.9219 23.1563V24.3125H6.20312V23.1563C7.65104 23.0313 8.54688 22.8021 8.89062 22.4687C9.21354 22.1563 9.37498 21.5469 9.37498 20.6406V1.59375H7.10938C5.16146 1.59375 3.73438 2.02604 2.82812 2.89062C1.9427 3.72396 1.37499 5.10417 1.12499 7.03125H0L0.484375 0Z" fill="black"/>
</svg>
