<svg width="29" height="29" viewBox="0 0 29 29" fill="none" xmlns="http://www.w3.org/2000/svg">
<path d="M3.625 7.25H6.04167H25.375" stroke="black" stroke-width="2.5" stroke-linecap="round" stroke-linejoin="round"/>
<path d="M9.66653 7.25006V4.83339C9.66653 4.19246 9.92112 3.57777 10.3744 3.12455C10.8276 2.67135 11.4423 2.41673 12.0832 2.41673H16.9165C17.5575 2.41673 18.1722 2.67135 18.6254 3.12455C19.0786 3.57777 19.3332 4.19246 19.3332 4.83339V7.25006M22.9582 7.25006V24.1667C22.9582 24.8077 22.7036 25.4224 22.2504 25.8756C21.7972 26.3288 21.1825 26.5834 20.5415 26.5834H8.45823C7.81725 26.5834 7.20257 26.3288 6.74936 25.8756C6.29615 25.4224 6.04153 24.8077 6.04153 24.1667V7.25006H22.9582Z" stroke="black" stroke-width="2.5" stroke-linecap="round" stroke-linejoin="round"/>
<path d="M12.0835 13.2917V20.5417" stroke="black" stroke-width="2.5" stroke-linecap="round" stroke-linejoin="round"/>
<path d="M16.9165 13.2917V20.5417" stroke="black" stroke-width="2.5" stroke-linecap="round" stroke-linejoin="round"/>
</svg>
