<svg width="29" height="29" viewBox="0 0 29 29" fill="none" xmlns="http://www.w3.org/2000/svg">
<path d="M5.57102 24.3333H24.429C24.8271 24.3334 25.2104 24.4618 25.5014 24.6924C25.7923 24.923 25.9692 25.2388 25.9963 25.5758C26.0235 25.9128 25.8988 26.246 25.6476 26.5081C25.3963 26.7701 25.0372 26.9415 24.6427 26.9876L24.429 27H5.57102C5.17286 26.9999 4.78958 26.8716 4.49865 26.6409C4.20771 26.4103 4.0308 26.0946 4.00366 25.7575C3.97652 25.4205 4.10118 25.0873 4.35244 24.8252C4.60371 24.5632 4.96285 24.3918 5.35729 24.3458L5.57102 24.3333H24.429H5.57102ZM14.7863 3.01244L15 3C15.3798 3.00001 15.7467 3.1167 16.0329 3.32847C16.3191 3.54025 16.5052 3.83279 16.5568 4.152L16.5715 4.33333V18.0009L21.2965 13.9938C21.5629 13.7678 21.9162 13.6305 22.292 13.607C22.6678 13.5835 23.041 13.6754 23.3436 13.8658L23.5196 13.9938C23.786 14.2199 23.9478 14.5196 23.9755 14.8384C24.0031 15.1573 23.8949 15.4739 23.6705 15.7307L23.5196 15.88L16.1105 22.1644C15.8444 22.3903 15.4917 22.5275 15.1164 22.5514C14.7411 22.5752 14.3682 22.4839 14.0655 22.2942L13.8895 22.1644L6.48039 15.88C6.19921 15.6421 6.03462 15.3227 6.01969 14.986C6.00477 14.6493 6.14063 14.3203 6.39996 14.0652C6.65928 13.81 7.02284 13.6476 7.41754 13.6106C7.81225 13.5736 8.20882 13.6648 8.52753 13.8658L8.70354 13.9938L13.4285 18.0044V4.33333C13.4285 4.01113 13.566 3.69984 13.8157 3.45701C14.0653 3.21419 14.4101 3.05626 14.7863 3.01244L15 3L14.7863 3.01244Z" fill="black"/>
</svg>
