<svg width="38" height="38" viewBox="0 0 38 38" fill="none" xmlns="http://www.w3.org/2000/svg">
<path d="M4.75 9.5H7.91667H33.25" stroke="white" stroke-width="2.5" stroke-linecap="round" stroke-linejoin="round"/>
<path d="M12.6665 9.50008V6.33341C12.6665 5.49356 13.0001 4.68811 13.594 4.09424C14.1879 3.50038 14.9933 3.16675 15.8332 3.16675H22.1665C23.0064 3.16675 23.8118 3.50038 24.4057 4.09424C24.9995 4.68811 25.3332 5.49356 25.3332 6.33341V9.50008M30.0832 9.50008V31.6667C30.0832 32.5066 29.7495 33.3121 29.1557 33.9059C28.5618 34.4998 27.7564 34.8334 26.9165 34.8334H11.0832C10.2433 34.8334 9.43786 34.4998 8.844 33.9059C8.25013 33.3121 7.9165 32.5066 7.9165 31.6667V9.50008H30.0832Z" stroke="white" stroke-width="2.5" stroke-linecap="round" stroke-linejoin="round"/>
<path d="M15.8335 17.4167V26.9167" stroke="white" stroke-width="2.5" stroke-linecap="round" stroke-linejoin="round"/>
<path d="M22.1665 17.4167V26.9167" stroke="white" stroke-width="2.5" stroke-linecap="round" stroke-linejoin="round"/>
</svg>
