<svg width="43" height="43" viewBox="0 0 43 43" fill="none" xmlns="http://www.w3.org/2000/svg">
<path d="M21.5 26.875C24.4685 26.875 26.875 24.4685 26.875 21.5C26.875 18.5315 24.4685 16.125 21.5 16.125C18.5315 16.125 16.125 18.5315 16.125 21.5C16.125 24.4685 18.5315 26.875 21.5 26.875Z" stroke="white" stroke-width="2" stroke-linecap="round" stroke-linejoin="round"/>
<path d="M34.7583 26.875C34.5198 27.4154 34.4487 28.0148 34.5541 28.596C34.6594 29.1772 34.9365 29.7136 35.3496 30.1358L35.4571 30.2433C35.7902 30.5761 36.0545 30.9713 36.2349 31.4063C36.4152 31.8413 36.508 32.3076 36.508 32.7785C36.508 33.2494 36.4152 33.7157 36.2349 34.1507C36.0545 34.5857 35.7902 34.9809 35.4571 35.3137C35.1243 35.6469 34.7291 35.9112 34.2941 36.0915C33.8591 36.2719 33.3928 36.3647 32.9219 36.3647C32.451 36.3647 31.9847 36.2719 31.5497 36.0915C31.1146 35.9112 30.7194 35.6469 30.3867 35.3137L30.2792 35.2062C29.8569 34.7932 29.3206 34.5161 28.7394 34.4107C28.1582 34.3053 27.5587 34.3765 27.0183 34.615C26.4884 34.8421 26.0365 35.2192 25.7181 35.6999C25.3998 36.1806 25.229 36.7439 25.2267 37.3204V37.625C25.2267 38.5753 24.8491 39.4868 24.1771 40.1588C23.5051 40.8308 22.5937 41.2083 21.6433 41.2083C20.693 41.2083 19.7815 40.8308 19.1095 40.1588C18.4375 39.4868 18.06 38.5753 18.06 37.625V37.4637C18.0461 36.8707 17.8542 36.2956 17.5091 35.8131C17.164 35.3306 16.6817 34.9631 16.125 34.7583C15.5846 34.5198 14.9851 34.4487 14.4039 34.5541C13.8227 34.6594 13.2864 34.9365 12.8642 35.3496L12.7567 35.4571C12.4239 35.7902 12.0287 36.0545 11.5936 36.2349C11.1586 36.4152 10.6924 36.508 10.2214 36.508C9.75054 36.508 9.28425 36.4152 8.84924 36.2349C8.41423 36.0545 8.01903 35.7902 7.68624 35.4571C7.35307 35.1243 7.08877 34.7291 6.90844 34.2941C6.72811 33.8591 6.6353 33.3928 6.6353 32.9219C6.6353 32.451 6.72811 31.9847 6.90844 31.5497C7.08877 31.1146 7.35307 30.7194 7.68624 30.3867L7.79374 30.2792C8.20678 29.8569 8.48386 29.3206 8.58925 28.7394C8.69463 28.1582 8.62349 27.5587 8.38499 27.0183C8.15787 26.4884 7.78076 26.0365 7.30007 25.7181C6.81939 25.3998 6.25611 25.229 5.67957 25.2267H5.37499C4.42463 25.2267 3.5132 24.8491 2.84119 24.1771C2.16919 23.5051 1.79166 22.5937 1.79166 21.6433C1.79166 20.693 2.16919 19.7815 2.84119 19.1095C3.5132 18.4375 4.42463 18.06 5.37499 18.06H5.53624C6.12927 18.0461 6.70441 17.8542 7.1869 17.5091C7.66939 17.164 8.0369 16.6817 8.24166 16.125C8.48015 15.5846 8.5513 14.9851 8.44591 14.4039C8.34053 13.8227 8.06345 13.2864 7.65041 12.8642L7.54291 12.7567C7.20974 12.4239 6.94544 12.0287 6.76511 11.5936C6.58478 11.1586 6.49196 10.6924 6.49196 10.2214C6.49196 9.75054 6.58478 9.28425 6.76511 8.84924C6.94544 8.41423 7.20974 8.01903 7.54291 7.68624C7.8757 7.35307 8.2709 7.08877 8.70591 6.90844C9.14092 6.72811 9.60721 6.6353 10.0781 6.6353C10.549 6.6353 11.0153 6.72811 11.4503 6.90844C11.8853 7.08877 12.2805 7.35307 12.6133 7.68624L12.7208 7.79374C13.1431 8.20678 13.6794 8.48386 14.2606 8.58925C14.8418 8.69463 15.4413 8.62349 15.9817 8.38499H16.125C16.6549 8.15787 17.1069 7.78076 17.4252 7.30007C17.7435 6.81939 17.9144 6.25611 17.9167 5.67957V5.37499C17.9167 4.42463 18.2942 3.5132 18.9662 2.84119C19.6382 2.16919 20.5496 1.79166 21.5 1.79166C22.4503 1.79166 23.3618 2.16919 24.0338 2.84119C24.7058 3.5132 25.0833 4.42463 25.0833 5.37499V5.53624C25.0856 6.11277 25.2565 6.67605 25.5748 7.15674C25.8931 7.63743 26.3451 8.01454 26.875 8.24166C27.4154 8.48015 28.0148 8.5513 28.596 8.44591C29.1772 8.34053 29.7136 8.06345 30.1358 7.65041L30.2433 7.54291C30.5761 7.20974 30.9713 6.94544 31.4063 6.76511C31.8413 6.58478 32.3076 6.49196 32.7785 6.49196C33.2494 6.49196 33.7157 6.58478 34.1507 6.76511C34.5857 6.94544 34.9809 7.20974 35.3137 7.54291C35.6469 7.8757 35.9112 8.2709 36.0915 8.70591C36.2719 9.14092 36.3647 9.60721 36.3647 10.0781C36.3647 10.549 36.2719 11.0153 36.0915 11.4503C35.9112 11.8853 35.6469 12.2805 35.3137 12.6133L35.2062 12.7208C34.7932 13.1431 34.5161 13.6794 34.4107 14.2606C34.3053 14.8418 34.3765 15.4413 34.615 15.9817V16.125C34.8421 16.6549 35.2192 17.1069 35.6999 17.4252C36.1806 17.7435 36.7439 17.9144 37.3204 17.9167H37.625C38.5753 17.9167 39.4868 18.2942 40.1588 18.9662C40.8308 19.6382 41.2083 20.5496 41.2083 21.5C41.2083 22.4503 40.8308 23.3618 40.1588 24.0338C39.4868 24.7058 38.5753 25.0833 37.625 25.0833H37.4637C36.8872 25.0856 36.3239 25.2565 35.8432 25.5748C35.3626 25.8931 34.9854 26.3451 34.7583 26.875V26.875Z" stroke="white" stroke-width="2" stroke-linecap="round" stroke-linejoin="round"/>
</svg>
