<svg width="92" height="46" viewBox="0 0 92 46" fill="none" xmlns="http://www.w3.org/2000/svg">
<rect width="92" height="46" rx="21" fill="#898791"/>
<path d="M35.88 30L32.56 24.3H30.36V30H28.54V16.06H33.04C34.0933 16.06 34.98 16.24 35.7 16.6C36.4333 16.96 36.98 17.4467 37.34 18.06C37.7 18.6733 37.88 19.3733 37.88 20.16C37.88 21.12 37.6 21.9667 37.04 22.7C36.4933 23.4333 35.6667 23.92 34.56 24.16L38.06 30H35.88ZM30.36 22.84H33.04C34.0267 22.84 34.7667 22.6 35.26 22.12C35.7533 21.6267 36 20.9733 36 20.16C36 19.3333 35.7533 18.6933 35.26 18.24C34.78 17.7867 34.04 17.56 33.04 17.56H30.36V22.84ZM50.428 19.04V30H48.608V28.38C48.2613 28.94 47.7746 29.38 47.148 29.7C46.5346 30.0067 45.8546 30.16 45.108 30.16C44.2546 30.16 43.488 29.9867 42.808 29.64C42.128 29.28 41.588 28.7467 41.188 28.04C40.8013 27.3333 40.608 26.4733 40.608 25.46V19.04H42.408V25.22C42.408 26.3 42.6813 27.1333 43.228 27.72C43.7746 28.2933 44.5213 28.58 45.468 28.58C46.4413 28.58 47.208 28.28 47.768 27.68C48.328 27.08 48.608 26.2067 48.608 25.06V19.04H50.428ZM58.8409 18.84C60.1743 18.84 61.2543 19.2467 62.0809 20.06C62.9076 20.86 63.3209 22.02 63.3209 23.54V30H61.5209V23.8C61.5209 22.7067 61.2476 21.8733 60.7009 21.3C60.1543 20.7133 59.4076 20.42 58.4609 20.42C57.5009 20.42 56.7343 20.72 56.1609 21.32C55.6009 21.92 55.3209 22.7933 55.3209 23.94V30H53.5009V19.04H55.3209V20.6C55.6809 20.04 56.1676 19.6067 56.7809 19.3C57.4076 18.9933 58.0943 18.84 58.8409 18.84Z" fill="white"/>
</svg>
