<svg width="22" height="25" viewBox="0 0 22 25" fill="none" xmlns="http://www.w3.org/2000/svg">
<path d="M1.125 0.6875H21.2812L21.7656 7.71875H20.6406C20.3698 5.69792 19.7656 4.28125 18.8281 3.46875C17.9115 2.67708 16.5208 2.28125 14.6562 2.28125H12.3906V21.3281C12.3906 22.2865 12.5938 22.9271 13 23.25C13.3229 23.5104 14.1771 23.7083 15.5625 23.8438V25H6.84375V23.8438C8.29167 23.7188 9.1875 23.4896 9.53125 23.1562C9.85417 22.8438 10.0156 22.2344 10.0156 21.3281V2.28125H7.75C5.80208 2.28125 4.375 2.71354 3.46875 3.57812C2.58333 4.41146 2.01562 5.79167 1.76562 7.71875H0.640625L1.125 0.6875Z" fill="white"/>
</svg>
